<svg xmlns="http://www.w3.org/2000/svg" width="31.439" height="31.44" viewBox="0 0 31.439 31.44">
  <g id="header_mail" transform="translate(-1601.561 1064.636)">
    <g id="Group_27" data-name="Group 27">
      <g id="Group_26" data-name="Group 26">
        <path id="Path_96" data-name="Path 96" d="M1617.28-1064.636a15.72,15.72,0,0,0-15.719,15.72,15.72,15.72,0,0,0,15.719,15.72,15.72,15.72,0,0,0,15.72-15.72A15.72,15.72,0,0,0,1617.28-1064.636Zm0,5.522,9.3,5.8h-18.6Zm9.419,15.063h0a1.685,1.685,0,0,1-1.685,1.685h-15.465a1.684,1.684,0,0,1-1.685-1.685v-8.893a1.622,1.622,0,0,1,.027-.289l8.887,5.543.034.017.036.019a.982.982,0,0,0,.193.076l.021,0a.961.961,0,0,0,.219.028h0a.961.961,0,0,0,.219-.028l.021,0a1.032,1.032,0,0,0,.193-.076l.036-.019.033-.017,8.888-5.543a1.622,1.622,0,0,1,.027.289v8.893Z" fill="#3d5169"/>
      </g>
    </g>
  </g>
</svg>
