<svg xmlns="http://www.w3.org/2000/svg" width="31.439" height="31.439" viewBox="0 0 31.439 31.439">
  <path id="header_facebook" d="M1592.439-1048.916a15.718,15.718,0,0,0-15.719-15.72,15.719,15.719,0,0,0-15.72,15.72,15.718,15.718,0,0,0,15.72,15.719c.092,0,.184,0,.276-.006v-12.231h-3.377v-3.937H1577v-2.9c0-3.359,2.051-5.189,5.047-5.189a27.414,27.414,0,0,1,3.028.154v3.512h-2.064c-1.627,0-1.946.774-1.946,1.91v2.505h3.9l-.509,3.936h-3.39v11.637A15.726,15.726,0,0,0,1592.439-1048.916Z" transform="translate(-1561 1064.636)" fill="#3d5169"/>
</svg>
