<svg xmlns="http://www.w3.org/2000/svg" width="30" height="20.508" viewBox="0 0 30 20.508">
  <g id="icon_email" transform="translate(-1140 -3955.746)">
    <g id="Group_257" data-name="Group 257">
      <g id="Group_256" data-name="Group 256">
        <path id="Path_385" data-name="Path 385" d="M1165.354,3969.589l-4.859-5.712,4.315-2.462a.879.879,0,1,0-.87-1.527l-8.94,5.1c-.4-.23-8.583-4.9-8.939-5.1a.879.879,0,0,0-.871,1.527l4.315,2.462-4.858,5.712a.879.879,0,0,0,1.339,1.139l5.072-5.965,3.507,2a.882.882,0,0,0,.87,0l3.507-2,5.073,5.965a.879.879,0,0,0,1.339-1.139Z" fill="#6d92bd"/>
      </g>
    </g>
    <g id="Group_259" data-name="Group 259">
      <g id="Group_258" data-name="Group 258">
        <path id="Path_386" data-name="Path 386" d="M1167.363,3955.746h-24.726a2.64,2.64,0,0,0-2.637,2.637v15.234a2.64,2.64,0,0,0,2.637,2.637h24.726a2.64,2.64,0,0,0,2.637-2.637v-15.234A2.64,2.64,0,0,0,1167.363,3955.746Zm.879,17.871a.88.88,0,0,1-.879.879h-24.726a.88.88,0,0,1-.879-.879v-15.234a.88.88,0,0,1,.879-.879h24.726a.88.88,0,0,1,.879.879Z" fill="#6d92bd"/>
      </g>
    </g>
  </g>
</svg>
