<svg xmlns="http://www.w3.org/2000/svg" width="30.073" height="30" viewBox="0 0 30.073 30">
  <path id="icon_location" d="M1152.012,3865.312v3.046l-.737-.595a49.392,49.392,0,0,1-5.567-5.442c-3.788-4.349-5.708-8.253-5.708-11.6v-.332a12.011,12.011,0,1,1,24.023,0v.332c0,.281-.014.567-.042.856l-2.349-2.143a9.668,9.668,0,0,0-19.288.955v.332C1142.344,3856.379,1149.637,3863.231,1152.012,3865.312Zm7.207-1.683h3.515v-3.516h-3.515Zm-7.207-18.223a4.98,4.98,0,1,1-4.981,4.981A4.986,4.986,0,0,1,1152.012,3845.406Zm0,2.344a2.636,2.636,0,1,0,2.636,2.637A2.64,2.64,0,0,0,1152.012,3847.75Zm16.482,14.286-.659-.6v3.763a3.181,3.181,0,0,1-3.178,3.177h-7.42a3.181,3.181,0,0,1-3.178-3.177v-3.763l-.658.6-1.58-1.731,9.126-8.326,9.126,8.326Zm-3-2.739-4.544-4.145-4.544,4.145v5.9a.835.835,0,0,0,.834.833h7.42a.835.835,0,0,0,.834-.833Z" transform="translate(-1140 -3838.375)" fill="#6d92bd"/>
</svg>
