<svg xmlns="http://www.w3.org/2000/svg" width="30" height="30" viewBox="0 0 30 30">
  <g id="icon_call" transform="translate(-1140 -3895)">
    <path id="Path_387" data-name="Path 387" d="M1161.561,3925a8.364,8.364,0,0,1-2.868-.512,30.459,30.459,0,0,1-18.181-18.181,8.3,8.3,0,0,1-.423-4.079,8.513,8.513,0,0,1,4.373-6.229,8.354,8.354,0,0,1,4-1,.938.938,0,0,1,.917.741l1.471,6.867a.936.936,0,0,1-.254.859l-2.514,2.515a24.683,24.683,0,0,0,10.936,10.936l2.515-2.514a.935.935,0,0,1,.859-.254l6.867,1.471a.938.938,0,0,1,.741.917,8.356,8.356,0,0,1-1,4,8.512,8.512,0,0,1-6.229,4.373,8.372,8.372,0,0,1-1.211.089Zm-13.848-28.084a6.568,6.568,0,0,0-5.439,8.75,28.432,28.432,0,0,0,17.06,17.059,6.567,6.567,0,0,0,8.75-5.438l-5.586-1.2-2.626,2.626a.937.937,0,0,1-1.061.186,26.544,26.544,0,0,1-12.712-12.713.937.937,0,0,1,.185-1.061l2.626-2.626Z" fill="#6d92bd"/>
    <path id="Path_388" data-name="Path 388" d="M1169.063,3910.937a.938.938,0,0,1-.938-.938A13.14,13.14,0,0,0,1155,3896.875a.938.938,0,1,1,0-1.875,15,15,0,0,1,15,15,.938.938,0,0,1-.937.938Z" fill="#6d92bd"/>
    <path id="Path_389" data-name="Path 389" d="M1165.313,3910.937a.938.938,0,0,1-.938-.938,9.384,9.384,0,0,0-9.374-9.374.938.938,0,1,1,0-1.875A11.262,11.262,0,0,1,1166.25,3910,.938.938,0,0,1,1165.313,3910.937Z" fill="#6d92bd"/>
    <path id="Path_390" data-name="Path 390" d="M1161.563,3910.937a.938.938,0,0,1-.938-.938,5.63,5.63,0,0,0-5.624-5.624.938.938,0,1,1,0-1.875,7.507,7.507,0,0,1,7.5,7.5A.937.937,0,0,1,1161.563,3910.937Z" fill="#6d92bd"/>
  </g>
</svg>
