<svg xmlns="http://www.w3.org/2000/svg" width="225.12" height="40.62" viewBox="0 0 225.12 40.62">
  <g id="logo" transform="translate(-360.406 1074.418)">
    <g id="Group_6" data-name="Group 6">
      <g id="Group_4" data-name="Group 4">
        <path id="Path_9" data-name="Path 9" d="M460.208-1067.6v1.5h3.024v6.4h-6.766v1.378h7.342v6.025h-3.661l-.391-.761h-.411l-.349-.781-8.678.555v-1.337l4.256-.267v-2.2h-5.285v4.791h-1.871v-4.791H446.6v-1.234h.823v-.761h1.871v.761h5.285v-1.378h-6.7v-6.4h2.837v-1.5h-4.133v-1.255h4.133v-1.481H452.6v1.481h5.717v-1.481h1.891v1.481h4.237v1.255Zm-5.634,2.734h-4.853v1.3h4.853Zm0,2.55h-4.853v1.358h4.853Zm3.743-5.284H452.6v1.5h5.717Zm3,2.734h-4.853v1.3h4.853Zm0,2.55h-4.853v1.358h4.853Zm.637,5.224h-5.49v2.077l1.933-.124-.617-1.336H459.8l1.337,2.92h.822Z" fill="#fff"/>
        <path id="Path_10" data-name="Path 10" d="M466.529-1067.5v-1.357h8.287l-.781-1.521h2.036l.761,1.521h7.916v1.357Zm10.591,11.31v3.866h-7.486l-.658-1.336h6.231v-3.475l4.914-2.057H466.94v-1.337h17.274v1.316Zm-9.213-5.572v-4.5h15.484v4.5Zm13.572-3.167H469.8v1.83h11.68Z" fill="#fff"/>
        <path id="Path_11" data-name="Path 11" d="M504.456-1052.306H493.249l-2.612-1.892-1.707,1.871h-2.447l3.043-3.372v-3.332h-2.364v-1.336l2.508-3.846h-2.8v-1.357h4.894v1.357l-2.488,3.846h2.159v4.77l2.714,1.954h10.981Zm-14.786-14.169-2.632-3.824h2.221l2.653,3.824Zm10.139,10.385v1.81H497.9v-1.81h-5.408v-1.336H497.9v-1.337h-4.607v-1.316H497.9v-1.358h-5.2v-1.316h2.8l-1.193-1.994h-1.583v-1.337h5.141v-1.542h-4.566v-1.316h4.566v-1.419h1.871v1.419h4.586v1.316h-4.586v1.542h5.224v1.337h-1.481l-1.255,1.994h2.694v1.316h-5.1v1.358h4.482v1.316h-4.482v1.337h5.2v1.336Zm-3.475-8.657,1.151,1.994h2.755l1.234-1.994Z" fill="#fff"/>
        <path id="Path_12" data-name="Path 12" d="M517.932-1052.327H516l-3.66-1.521-3.763,1.521h-1.933l4.73-1.933-2.448-1.028v-1.994h-2.057v-.577h2.057v-1.089h.823v1.089h5.284v-1.089h.823v1.089h2.138v.577h-2.138v1.994l-2.529,1.028Zm-.967-11.392h-4.153v1.172h4.462v3.044h-9.768v-3.044h4.5v-1.172h-4.174v-2.488h-.885v-.576h.885v-2.447h4.174v-1.131h.8v1.131h4.153v2.447h1.028v.576h-1.028Zm-8.616,1.748v1.892h3.661v-1.892Zm.288-6.7v1.892h3.373v-1.892Zm0,2.468v1.912h3.373v-1.912Zm6.395,8.925h-5.284v1.521l2.612,1.09,2.672-1.09Zm-2.22-11.393v1.892h3.372v-1.892Zm0,2.468v1.912h3.372v-1.912Zm0,4.236v1.892h3.66v-1.892Zm8.143,4.256-1.933,5.388h-.9l2.262-6.292-2.386-3.743H519l1.728,2.735,2.406-6.724h-3.27l-1.173,2.961h-.945l2.8-6.971h.924l-1.335,3.372h4.976v.638H524.04l-2.735,7.629,4.051,6.4h-.987Z" fill="#fff"/>
        <path id="Path_13" data-name="Path 13" d="M530.236-1064.973v12.646h-.9v-12.379l-1.4,2.406h-.987l4.689-8.061h.986l-3.126,5.388Zm1.6,12.029h7.526l3.928-11.577h.946l-3.928,11.577h5.038v.617H531.84Zm.35-14.168h6.354l-1.131-3.249h.946l1.131,3.249h5.552v.617H532.19Zm.946,2.591h.945l3.291,9.768h-.946Z" fill="#fff"/>
        <path id="Path_14" data-name="Path 14" d="M550.745-1062.3v9.973h-.924v-9.87l-1.523,1.6h-1.151l5.12-5.368h1.152l-3.5,3.661Zm-3.413-3.208,4.647-4.873h1.152l-4.647,4.873Zm14.436,13.181h-6.5l-.35-.617h5.9v-10.22h-7.445v-.617h12.051v.617h-3.66Zm-7.444-17.5h10.2v.617h-10.2Z" fill="#fff"/>
        <path id="Path_15" data-name="Path 15" d="M572.571-1069.312h-2.612l-1.83,3.969h-.966l2.118-4.586h3.989l2.118,4.586H574.4Zm-5.121,16.43,3.352-.555v-7.135h-3.228v-.618H570.8v-2.776h-2.735v-.617h6.375v.617h-2.735v2.776h3.229v.618h-3.229v6.991l3.5-.576v.679l-7.753,1.275Zm.247-6.19h.864l.946,4.031h-.864Zm5.326,4.031.947-4.031h.842l-.946,4.031Zm2.263-14.456h.966l2.365,4.01h-.967Zm5,16.553h3.639v-4.03H576.89v4.647h-.865V-1064.6h3.948v-5.758h.865v5.758h3.948v12.276h-4.175Zm-3.392-11.042v2.879h7.031v-2.879Zm0,3.495v2.9h7.031v-2.9Zm5.3-5,2.345-4.01h.987l-2.344,4.01Z" fill="#fff"/>
      </g>
      <g id="Group_5" data-name="Group 5">
        <path id="Path_16" data-name="Path 16" d="M455.476-1038.623h-.988l-1.459-5.463-1.458,5.463h-.988l-2.018-7.207h1.053l1.448,5.529,1.481-5.529h.965l1.481,5.529,1.448-5.529h1.053Z" fill="#fff"/>
        <path id="Path_17" data-name="Path 17" d="M464.4-1038.623v-3.148h-3.532v3.148h-1.01v-7.207h1.01v3.116H464.4v-3.116H465.4v7.207Z" fill="#fff"/>
        <path id="Path_18" data-name="Path 18" d="M473.151-1039.566a3.95,3.95,0,0,1-2.819.943h-2.073v-7.207h2.073a4.176,4.176,0,0,1,2.819.823,3.631,3.631,0,0,1,1.009,2.83A3.43,3.43,0,0,1,473.151-1039.566Zm-.68-4.695a3.039,3.039,0,0,0-2.139-.626h-1.064v5.321h1.064a2.875,2.875,0,0,0,2.128-.724,2.564,2.564,0,0,0,.658-1.887A2.819,2.819,0,0,0,472.471-1044.261Z" fill="#fff"/>
        <path id="Path_19" data-name="Path 19" d="M486.876-1039.566a3.95,3.95,0,0,1-2.819.943h-2.073v-7.207h2.073a4.176,4.176,0,0,1,2.819.823,3.631,3.631,0,0,1,1.009,2.83A3.43,3.43,0,0,1,486.876-1039.566Zm-.68-4.695a3.038,3.038,0,0,0-2.139-.626h-1.064v5.321h1.064a2.874,2.874,0,0,0,2.128-.724,2.564,2.564,0,0,0,.658-1.887A2.819,2.819,0,0,0,486.2-1044.261Z" fill="#fff"/>
        <path id="Path_20" data-name="Path 20" d="M491.189-1044.832v-1.085H492.2v1.085Zm0,6.209v-4.837H492.2v4.837Z" fill="#fff"/>
        <path id="Path_21" data-name="Path 21" d="M499.23-1037.789a2.086,2.086,0,0,1-1.58.647,2.21,2.21,0,0,1-2.084-1.229l.878-.428a1.315,1.315,0,0,0,1.206.725,1.134,1.134,0,0,0,.856-.351,1.463,1.463,0,0,0,.329-1.021v-.175a1.773,1.773,0,0,1-1.261.559,2.061,2.061,0,0,1-1.569-.658,2.175,2.175,0,0,1-.625-1.579,2.235,2.235,0,0,1,.614-1.6,2.085,2.085,0,0,1,1.58-.658,2,2,0,0,1,1.261.45v-.374h1v4.037A2.348,2.348,0,0,1,499.23-1037.789Zm-.757-4.476a1.181,1.181,0,0,0-.9-.362,1.046,1.046,0,0,0-.812.384,1.347,1.347,0,0,0-.351.944,1.223,1.223,0,0,0,.351.9,1.012,1.012,0,0,0,.812.384,1.206,1.206,0,0,0,.9-.351,1.3,1.3,0,0,0,.351-.966A1.333,1.333,0,0,0,498.473-1042.265Z" fill="#fff"/>
        <path id="Path_22" data-name="Path 22" d="M503.137-1044.832v-1.085h1.009v1.085Zm0,6.209v-4.837h1.009v4.837Z" fill="#fff"/>
        <path id="Path_23" data-name="Path 23" d="M508.995-1042.627v2.709c0,.154.011.242.055.286s.1.077.2.077h.878v.932h-.91a1.147,1.147,0,0,1-.933-.329,1.605,1.605,0,0,1-.274-1.042v-2.633h-.844v-.943h.844v-1.218h.987v1.218h1.174v.943Z" fill="#fff"/>
        <path id="Path_24" data-name="Path 24" d="M515.676-1038.612a2.4,2.4,0,0,1-.164-.6,2.308,2.308,0,0,1-1.646.681,1.8,1.8,0,0,1-1.151-.351,1.187,1.187,0,0,1-.461-.988,1.5,1.5,0,0,1,.823-1.393,5.74,5.74,0,0,1,2.391-.482.891.891,0,0,0-.987-.889,1.2,1.2,0,0,0-1.064.648l-.933-.428a2.135,2.135,0,0,1,2-1.152,1.973,1.973,0,0,1,1.524.581,2.231,2.231,0,0,1,.483,1.525v2.062a2.214,2.214,0,0,0,.175.79Zm-2.391-1.262c0,.275.186.406.581.406a1.579,1.579,0,0,0,1.042-.372,1.6,1.6,0,0,0,.56-.988C514.009-1040.8,513.285-1040.477,513.285-1039.874Z" fill="#fff"/>
        <path id="Path_25" data-name="Path 25" d="M519.967-1038.623v-7.207h1.009v7.207Z" fill="#fff"/>
        <path id="Path_26" data-name="Path 26" d="M535.984-1038.623v-5.331l-2.183,5.331h-.943l-2.184-5.331v5.331h-1v-7.207h1.273l2.38,5.891,2.38-5.891h1.273v7.207Z" fill="#fff"/>
        <path id="Path_27" data-name="Path 27" d="M542.929-1038.612a2.453,2.453,0,0,1-.165-.6,2.3,2.3,0,0,1-1.645.681,1.805,1.805,0,0,1-1.152-.351,1.189,1.189,0,0,1-.46-.988,1.5,1.5,0,0,1,.822-1.393,5.749,5.749,0,0,1,2.392-.482.891.891,0,0,0-.987-.889,1.206,1.206,0,0,0-1.065.648l-.932-.428a2.135,2.135,0,0,1,2-1.152,1.973,1.973,0,0,1,1.524.581,2.231,2.231,0,0,1,.483,1.525v2.062a2.214,2.214,0,0,0,.175.79Zm-2.391-1.262c0,.275.186.406.581.406a1.579,1.579,0,0,0,1.042-.372,1.6,1.6,0,0,0,.56-.988C541.262-1040.8,540.538-1040.477,540.538-1039.874Z" fill="#fff"/>
        <path id="Path_28" data-name="Path 28" d="M547.318-1041.069v2.457h-.987v-4.859h.987v.592a1.639,1.639,0,0,1,.735-.472,3.862,3.862,0,0,1,.954-.12v.965C547.878-1042.462,547.318-1041.99,547.318-1041.069Z" fill="#fff"/>
        <path id="Path_29" data-name="Path 29" d="M554.284-1038.623l-1.568-2.457-.57.559v1.9h-1v-7.2h1v4.048l1.864-1.854H555.3l-1.909,1.909,2.04,3.093Z" fill="#fff"/>
        <path id="Path_30" data-name="Path 30" d="M559.507-1038.535a1.933,1.933,0,0,1-1.6-.735,2.821,2.821,0,0,1-.548-1.821,2.561,2.561,0,0,1,.658-1.843,2.025,2.025,0,0,1,1.525-.636,1.986,1.986,0,0,1,1.481.614,2.378,2.378,0,0,1,.614,1.678v.461h-3.269c.088.9.472,1.338,1.141,1.338a1.5,1.5,0,0,0,1.262-.921l.877.461A2.45,2.45,0,0,1,559.507-1038.535Zm.033-4.1a1.112,1.112,0,0,0-1.1.867h2.128A1.078,1.078,0,0,0,559.54-1042.638Z" fill="#fff"/>
        <path id="Path_31" data-name="Path 31" d="M565.508-1042.627v2.709c0,.154.011.242.055.286s.1.077.2.077h.878v.932h-.91a1.147,1.147,0,0,1-.933-.329,1.606,1.606,0,0,1-.274-1.042v-2.633h-.844v-.943h.844v-1.218h.987v1.218h1.174v.943Z" fill="#fff"/>
        <path id="Path_32" data-name="Path 32" d="M569.766-1044.832v-1.085h1.009v1.085Zm0,6.209v-4.837h1.009v4.837Z" fill="#fff"/>
        <path id="Path_33" data-name="Path 33" d="M577.5-1038.623v-2.764c0-.823-.34-1.24-1.02-1.24a1.673,1.673,0,0,0-1.415.834v3.17h-1v-4.87h1v.482a2.226,2.226,0,0,1,1.481-.559c1.294,0,1.952.735,1.952,2.183v2.764Z" fill="#fff"/>
        <path id="Path_34" data-name="Path 34" d="M584.653-1037.789a2.085,2.085,0,0,1-1.58.647,2.208,2.208,0,0,1-2.083-1.229l.877-.428a1.315,1.315,0,0,0,1.206.725,1.134,1.134,0,0,0,.856-.351,1.463,1.463,0,0,0,.33-1.021v-.175a1.775,1.775,0,0,1-1.262.559,2.063,2.063,0,0,1-1.569-.658,2.175,2.175,0,0,1-.625-1.579,2.235,2.235,0,0,1,.614-1.6,2.087,2.087,0,0,1,1.58-.658,2,2,0,0,1,1.262.45v-.374h1v4.037A2.349,2.349,0,0,1,584.653-1037.789Zm-.756-4.476a1.185,1.185,0,0,0-.9-.362,1.048,1.048,0,0,0-.812.384,1.347,1.347,0,0,0-.351.944,1.223,1.223,0,0,0,.351.9,1.014,1.014,0,0,0,.812.384,1.21,1.21,0,0,0,.9-.351,1.308,1.308,0,0,0,.351-.966A1.338,1.338,0,0,0,583.9-1042.265Z" fill="#fff"/>
      </g>
    </g>
    <g id="Group_11" data-name="Group 11">
      <g id="Group_8" data-name="Group 8">
        <g id="Group_7" data-name="Group 7">
          <path id="Path_35" data-name="Path 35" d="M414.268-1037.419l-.037-7.319-7.167-4.267.038,7.32-4.713-2.744L402.3-1063.5l4.713,2.744.036,6.592,7.166,4.266-.036-6.795,4.643,2.709.084,19.275Z" fill="#fff"/>
        </g>
      </g>
      <g id="Group_10" data-name="Group 10">
        <g id="Group_9" data-name="Group 9">
          <path id="Path_36" data-name="Path 36" d="M426.816-1037.929l-1.646-1.324.052,2.225-4.931,2.784-.062-19.732,4.931-2.785.054,2.25,1.714-3.248,10.634-6.005.062,19.732Zm5.829-20.359-7.422,4.191-.063,14.43,7.421-4.19Z" fill="#fff"/>
        </g>
      </g>
      <path id="Path_37" data-name="Path 37" d="M432.766-1066.923l-12.643,7.22-2.692-1.561,12.635-7.216-3.8-2.191-12.624,7.21-2.692-1.561,12.617-7.205-3.8-2.191-16.792,9.59,3.8,2.191,3.581,2.065,1.989-.593,2.03-.605-.52,1.484-.505,1.441,6.425,3.7,16.792-9.59Z" fill="#ef8337"/>
    </g>
    <rect id="Rectangle_4" data-name="Rectangle 4" width="19.719" height="38.923" transform="translate(380.125 -1033.798) rotate(180)" fill="#cdd8e8"/>
  </g>
</svg>
