<svg xmlns="http://www.w3.org/2000/svg" width="257.353" height="56.429" viewBox="0 0 257.353 56.429">
  <g id="logo" transform="translate(-1079.719 -3746.639)">
    <g id="Group_218" data-name="Group 218">
      <g id="Group_212" data-name="Group 212">
        <g id="Group_210" data-name="Group 210">
          <path id="Path_272" data-name="Path 272" d="M1161.051,3756.208v2.109h4.247v8.983h-9.5v1.935h10.312v8.463h-5.142l-.549-1.069h-.578l-.49-1.1-12.189.779v-1.877l5.979-.376v-3.09h-7.423v6.73h-2.629v-6.73h-1.156v-1.733h1.156v-1.069h2.629v1.069h7.423V3767.3h-9.416v-8.983h3.985v-2.109h-5.8v-1.762h5.8v-2.079h2.657v2.079h8.03v-2.079h2.657v2.079H1167v1.762Zm-7.913,3.842h-6.817v1.82h6.817Zm0,3.581h-6.817v1.907h6.817Zm5.256-7.423h-8.03v2.109h8.03Zm4.218,3.842H1155.8v1.82h6.817Zm0,3.581H1155.8v1.907h6.817Zm.894,7.337H1155.8v2.917l2.715-.174-.866-1.877h2.83l1.878,4.1h1.154Z" fill="#0c2644"/>
          <path id="Path_273" data-name="Path 273" d="M1169.929,3756.352v-1.906h11.639l-1.1-2.137h2.859l1.069,2.137h11.119v1.906Zm14.876,15.887v5.43h-10.514l-.925-1.878h8.752v-4.881l6.9-2.888h-18.515v-1.878h24.263v1.849Zm-12.94-7.828v-6.326h21.749v6.326Zm19.063-4.448h-16.406v2.57h16.406Z" fill="#0c2644"/>
          <path id="Path_274" data-name="Path 274" d="M1223.2,3777.7H1207.46l-3.67-2.658-2.4,2.629h-3.437l4.274-4.737v-4.68h-3.322v-1.877l3.524-5.4h-3.928v-1.906h6.875v1.906l-3.495,5.4h3.032v6.7l3.812,2.744h15.425Zm-20.768-19.9-3.7-5.372h3.12l3.726,5.372Zm14.241,14.586v2.541h-2.687v-2.541h-7.6v-1.877h7.6v-1.878h-6.47v-1.848h6.47v-1.907h-7.308v-1.849h3.928l-1.675-2.8h-2.224v-1.877h7.221v-2.167h-6.412v-1.848h6.412v-1.994h2.628v1.994H1223v1.848h-6.442v2.167h7.338v1.877h-2.08l-1.763,2.8h3.784v1.849h-7.162v1.907h6.3v1.848h-6.3v1.878h7.306v1.877Zm-4.881-12.16,1.617,2.8h3.87l1.732-2.8Z" fill="#0c2644"/>
          <path id="Path_275" data-name="Path 275" d="M1242.13,3777.669h-2.715l-5.142-2.137-5.285,2.137h-2.715l6.643-2.716-3.438-1.444v-2.8h-2.888v-.809h2.888v-1.531h1.156v1.531h7.422v-1.531h1.156v1.531h3v.809h-3v2.8l-3.553,1.444Zm-1.358-16h-5.834v1.647h6.267v4.274h-13.719v-4.274h6.325v-1.647h-5.863v-3.494h-1.242v-.809h1.242v-3.438h5.863v-1.589h1.127v1.589h5.834v3.438h1.444v.809h-1.444Zm-12.1,2.455v2.658h5.141v-2.658Zm.4-9.416v2.658h4.737v-2.658Zm0,3.467v2.685h4.737v-2.685Zm8.982,12.535h-7.422v2.137l3.668,1.531,3.754-1.531Zm-3.118-16v2.658h4.737v-2.658Zm0,3.467v2.685h4.737v-2.685Zm0,5.949v2.658h5.141v-2.658Zm11.438,5.979-2.716,7.568h-1.271l3.178-8.839-3.351-5.256h1.415l2.427,3.841,3.379-9.445h-4.593l-1.646,4.159h-1.328l3.928-9.792h1.3l-1.876,4.737h6.99v.9h-1.5l-3.841,10.716,5.69,8.983h-1.386Z" fill="#0c2644"/>
          <path id="Path_276" data-name="Path 276" d="M1259.411,3759.906v17.763h-1.269v-17.388l-1.965,3.379h-1.386l6.585-11.323h1.386l-4.391,7.569Zm2.253,16.9h10.572l5.517-16.261h1.329l-5.518,16.261h7.077v.867h-18.977Zm.492-19.9h8.925l-1.589-4.564h1.329l1.588,4.564h7.8v.867h-18.052Zm1.329,3.64h1.328l4.622,13.719h-1.329Z" fill="#0c2644"/>
          <path id="Path_277" data-name="Path 277" d="M1288.219,3763.66v14.009h-1.3V3763.8l-2.138,2.252h-1.617l7.192-7.538h1.617l-4.91,5.141Zm-4.794-4.506,6.527-6.845h1.618l-6.528,6.845Zm20.276,18.515h-9.127l-.491-.867h8.29v-14.355h-10.457v-.867h16.926v.867H1303.7Zm-10.456-24.58h14.326v.867h-14.326Z" fill="#0c2644"/>
          <path id="Path_278" data-name="Path 278" d="M1318.875,3753.811h-3.668l-2.572,5.575h-1.357l2.976-6.442h5.6l2.976,6.442h-1.386Zm-7.192,23.078,4.708-.78v-10.022h-4.535v-.867h4.535v-3.9h-3.841v-.867h8.953v.867h-3.841v3.9h4.535v.867h-4.535v9.82l4.91-.809v.953l-10.889,1.791Zm.346-8.694h1.214l1.328,5.661h-1.213Zm7.481,5.661,1.33-5.661h1.183l-1.329,5.661Zm3.178-20.3h1.357l3.322,5.632h-1.358Zm7.018,23.251h5.112v-5.661h-9.877v6.528h-1.214v-17.244h5.545v-8.088h1.215v8.088h5.545v17.244h-5.864Zm-4.765-15.511v4.045h9.877v-4.045Zm0,4.91v4.074h9.877V3766.2Zm7.451-7.018,3.293-5.632h1.387l-3.292,5.632Z" fill="#0c2644"/>
        </g>
        <g id="Group_211" data-name="Group 211">
          <path id="Path_279" data-name="Path 279" d="M1154.4,3796.917h-1.387l-2.049-7.673-2.049,7.673h-1.387l-2.835-10.123h1.479l2.034,7.765,2.08-7.765h1.356l2.08,7.765,2.033-7.765h1.479Z" fill="#0c2644"/>
          <path id="Path_280" data-name="Path 280" d="M1166.933,3796.917V3792.5h-4.961v4.422h-1.418v-10.123h1.418v4.376h4.961v-4.376h1.417v10.123Z" fill="#0c2644"/>
          <path id="Path_281" data-name="Path 281" d="M1179.231,3795.592a5.551,5.551,0,0,1-3.96,1.325h-2.912v-10.123h2.912a5.874,5.874,0,0,1,3.96,1.155,5.106,5.106,0,0,1,1.417,3.976A4.819,4.819,0,0,1,1179.231,3795.592Zm-.956-6.595a4.269,4.269,0,0,0-3-.878h-1.495v7.473h1.495a4.036,4.036,0,0,0,2.989-1.017,3.6,3.6,0,0,0,.924-2.65A3.963,3.963,0,0,0,1178.275,3789Z" fill="#0c2644"/>
          <path id="Path_282" data-name="Path 282" d="M1198.509,3795.592a5.551,5.551,0,0,1-3.96,1.325h-2.912v-10.123h2.912a5.874,5.874,0,0,1,3.96,1.155,5.106,5.106,0,0,1,1.417,3.976A4.82,4.82,0,0,1,1198.509,3795.592Zm-.956-6.595a4.269,4.269,0,0,0-3-.878h-1.495v7.473h1.495a4.036,4.036,0,0,0,2.989-1.017,3.6,3.6,0,0,0,.924-2.65A3.959,3.959,0,0,0,1197.553,3789Z" fill="#0c2644"/>
          <path id="Path_283" data-name="Path 283" d="M1204.566,3788.2v-1.525h1.418v1.525Zm0,8.721v-6.795h1.418v6.795Z" fill="#0c2644"/>
          <path id="Path_284" data-name="Path 284" d="M1215.861,3798.088a2.926,2.926,0,0,1-2.219.909,3.1,3.1,0,0,1-2.927-1.726l1.233-.6a1.845,1.845,0,0,0,1.694,1.017,1.589,1.589,0,0,0,1.2-.493,2.057,2.057,0,0,0,.462-1.433v-.247a2.485,2.485,0,0,1-1.772.787,2.9,2.9,0,0,1-2.2-.925,3.055,3.055,0,0,1-.878-2.218,3.138,3.138,0,0,1,.863-2.25,2.929,2.929,0,0,1,2.218-.925,2.8,2.8,0,0,1,1.772.632v-.524h1.4v5.67A3.3,3.3,0,0,1,1215.861,3798.088Zm-1.064-6.287a1.657,1.657,0,0,0-1.263-.508,1.467,1.467,0,0,0-1.14.54,1.886,1.886,0,0,0-.493,1.325,1.717,1.717,0,0,0,.493,1.263,1.42,1.42,0,0,0,1.14.539,1.693,1.693,0,0,0,1.263-.493,1.827,1.827,0,0,0,.493-1.356A1.867,1.867,0,0,0,1214.8,3791.8Z" fill="#0c2644"/>
          <path id="Path_285" data-name="Path 285" d="M1221.348,3788.2v-1.525h1.417v1.525Zm0,8.721v-6.795h1.417v6.795Z" fill="#0c2644"/>
          <path id="Path_286" data-name="Path 286" d="M1229.577,3791.293v3.8c0,.216.015.34.077.4.047.077.139.108.277.108h1.233v1.31h-1.279a1.606,1.606,0,0,1-1.309-.462,2.251,2.251,0,0,1-.386-1.464v-3.7H1227v-1.325h1.186v-1.71h1.387v1.71h1.649v1.325Z" fill="#0c2644"/>
          <path id="Path_287" data-name="Path 287" d="M1238.961,3796.932a3.352,3.352,0,0,1-.231-.847,3.241,3.241,0,0,1-2.311.955,2.529,2.529,0,0,1-1.618-.493,1.667,1.667,0,0,1-.647-1.387,2.1,2.1,0,0,1,1.156-1.957,8.067,8.067,0,0,1,3.359-.677,1.251,1.251,0,0,0-1.387-1.248,1.69,1.69,0,0,0-1.495.909l-1.309-.6a3,3,0,0,1,2.8-1.618,2.772,2.772,0,0,1,2.141.817,3.129,3.129,0,0,1,.678,2.141v2.9a3.083,3.083,0,0,0,.247,1.109Zm-3.359-1.772c0,.386.262.57.817.57a2.215,2.215,0,0,0,1.463-.523,2.253,2.253,0,0,0,.787-1.387C1236.619,3793.866,1235.6,3794.313,1235.6,3795.16Z" fill="#0c2644"/>
          <path id="Path_288" data-name="Path 288" d="M1244.987,3796.917v-10.123h1.418v10.123Z" fill="#0c2644"/>
          <path id="Path_289" data-name="Path 289" d="M1267.485,3796.917v-7.489l-3.066,7.489h-1.325l-3.067-7.489v7.489h-1.4v-10.123h1.788l3.343,8.274,3.343-8.274h1.788v10.123Z" fill="#0c2644"/>
          <path id="Path_290" data-name="Path 290" d="M1277.24,3796.932a3.351,3.351,0,0,1-.231-.847,3.241,3.241,0,0,1-2.311.955,2.533,2.533,0,0,1-1.618-.493,1.67,1.67,0,0,1-.647-1.387,2.1,2.1,0,0,1,1.156-1.957,8.068,8.068,0,0,1,3.359-.677,1.251,1.251,0,0,0-1.387-1.248,1.69,1.69,0,0,0-1.495.909l-1.309-.6a3,3,0,0,1,2.8-1.618,2.775,2.775,0,0,1,2.142.817,3.134,3.134,0,0,1,.677,2.141v2.9a3.106,3.106,0,0,0,.247,1.109Zm-3.359-1.772c0,.386.262.57.817.57a2.22,2.22,0,0,0,1.464-.523,2.253,2.253,0,0,0,.786-1.387C1274.9,3793.866,1273.881,3794.313,1273.881,3795.16Z" fill="#0c2644"/>
          <path id="Path_291" data-name="Path 291" d="M1283.405,3793.481v3.451h-1.386v-6.825h1.386v.832a2.3,2.3,0,0,1,1.032-.663,5.4,5.4,0,0,1,1.341-.169v1.355C1284.191,3791.524,1283.405,3792.187,1283.405,3793.481Z" fill="#0c2644"/>
          <path id="Path_292" data-name="Path 292" d="M1293.19,3796.917l-2.2-3.451-.8.785v2.666h-1.4v-10.108h1.4v5.686l2.619-2.6h1.818l-2.681,2.681,2.866,4.345Z" fill="#0c2644"/>
          <path id="Path_293" data-name="Path 293" d="M1300.525,3797.04a2.709,2.709,0,0,1-2.249-1.033,3.949,3.949,0,0,1-.77-2.557,3.592,3.592,0,0,1,.924-2.588,2.845,2.845,0,0,1,2.142-.894,2.789,2.789,0,0,1,2.08.862,3.344,3.344,0,0,1,.863,2.358v.647h-4.592c.123,1.263.663,1.88,1.6,1.88a2.1,2.1,0,0,0,1.772-1.294l1.233.647A3.438,3.438,0,0,1,1300.525,3797.04Zm.047-5.762a1.562,1.562,0,0,0-1.541,1.217h2.989A1.513,1.513,0,0,0,1300.572,3791.278Z" fill="#0c2644"/>
          <path id="Path_294" data-name="Path 294" d="M1308.955,3791.293v3.8c0,.216.015.34.077.4.046.077.139.108.277.108h1.233v1.31h-1.279a1.61,1.61,0,0,1-1.31-.462,2.258,2.258,0,0,1-.385-1.464v-3.7h-1.186v-1.325h1.186v-1.71h1.387v1.71h1.648v1.325Z" fill="#0c2644"/>
          <path id="Path_295" data-name="Path 295" d="M1314.935,3788.2v-1.525h1.417v1.525Zm0,8.721v-6.795h1.417v6.795Z" fill="#0c2644"/>
          <path id="Path_296" data-name="Path 296" d="M1325.8,3796.917v-3.883c0-1.156-.478-1.741-1.433-1.741a2.353,2.353,0,0,0-1.988,1.171v4.453h-1.4v-6.841h1.4v.677a3.13,3.13,0,0,1,2.08-.785c1.818,0,2.743,1.033,2.743,3.066v3.883Z" fill="#0c2644"/>
          <path id="Path_297" data-name="Path 297" d="M1335.845,3798.088a2.922,2.922,0,0,1-2.218.909,3.1,3.1,0,0,1-2.927-1.726l1.232-.6a1.849,1.849,0,0,0,1.695,1.017,1.589,1.589,0,0,0,1.2-.493,2.057,2.057,0,0,0,.462-1.433v-.247a2.487,2.487,0,0,1-1.772.787,2.9,2.9,0,0,1-2.2-.925,3.055,3.055,0,0,1-.878-2.218,3.141,3.141,0,0,1,.862-2.25,2.932,2.932,0,0,1,2.219-.925,2.8,2.8,0,0,1,1.772.632v-.524h1.4v5.67A3.294,3.294,0,0,1,1335.845,3798.088Zm-1.062-6.287a1.661,1.661,0,0,0-1.264-.508,1.467,1.467,0,0,0-1.14.54,1.886,1.886,0,0,0-.493,1.325,1.717,1.717,0,0,0,.493,1.263,1.42,1.42,0,0,0,1.14.539,1.7,1.7,0,0,0,1.264-.493,1.831,1.831,0,0,0,.493-1.356A1.872,1.872,0,0,0,1334.783,3791.8Z" fill="#0c2644"/>
        </g>
      </g>
      <g id="Group_217" data-name="Group 217">
        <g id="Group_214" data-name="Group 214">
          <g id="Group_213" data-name="Group 213">
            <path id="Path_298" data-name="Path 298" d="M1096.523,3798.608l-.052-10.281-10.066-5.992.053,10.28-6.62-3.853-.119-26.788,6.62,3.854.05,9.258,10.066,5.993-.05-9.544,6.521,3.805.118,27.073Z" fill="#0c2644"/>
          </g>
        </g>
        <g id="Group_216" data-name="Group 216">
          <g id="Group_215" data-name="Group 215">
            <path id="Path_299" data-name="Path 299" d="M1114.148,3797.892l-2.312-1.86.074,3.124-6.926,3.912-.087-27.716,6.926-3.911.075,3.16,2.408-4.563,14.936-8.434.087,27.715Zm8.187-28.6-10.423,5.886-.09,20.269,10.424-5.886Z" fill="#0c2644"/>
          </g>
        </g>
        <path id="Path_300" data-name="Path 300" d="M1122.506,3757.167l-17.758,10.141-3.781-2.193,17.747-10.135-5.337-3.078-17.732,10.126-3.781-2.193,17.721-10.121-5.337-3.077-23.586,13.47,5.337,3.077,5.031,2.9,2.793-.833,2.851-.85-.731,2.083-.71,2.024,9.024,5.2,23.586-13.47Z" fill="#0c2644"/>
      </g>
    </g>
  </g>
</svg>
