<svg xmlns="http://www.w3.org/2000/svg" width="36.439" height="41.551" viewBox="0 0 36.439 41.551">
  <g id="media_icon_1-2" transform="translate(-369.553 -630.147)">
    <g id="Group_270" data-name="Group 270">
      <g id="Group_269" data-name="Group 269">
        <path id="Path_430" data-name="Path 430" d="M405.991,666.342v-5.681H369.553v5.681H384v2.921h-2.435V671.7h12.173v-2.435H391.3v-2.921Zm-17.124,2.921h-2.434v-2.921h2.434Z" fill="#477aa2"/>
      </g>
    </g>
    <g id="Group_272" data-name="Group 272">
      <g id="Group_271" data-name="Group 271">
        <path id="Path_431" data-name="Path 431" d="M381.563,630.147v1.664a9.222,9.222,0,0,0-5.1-1.664h-4.645l2.434,8.2h16.978l2.435-8.2Z" fill="#477aa2"/>
      </g>
    </g>
    <g id="Group_274" data-name="Group 274">
      <g id="Group_273" data-name="Group 273">
        <path id="Path_432" data-name="Path 432" d="M405.844,634.367l-1.107-4.131-4.13,1.107a4.277,4.277,0,1,0,5.237,3.024Z" fill="#477aa2"/>
      </g>
    </g>
    <g id="Group_276" data-name="Group 276">
      <g id="Group_275" data-name="Group 275">
        <path id="Path_433" data-name="Path 433" d="M374.746,640.779v2.028a3.656,3.656,0,0,0,3.652,3.652h8.765a3.656,3.656,0,0,0,3.652-3.652v-2.028Z" fill="#477aa2"/>
      </g>
    </g>
    <g id="Group_278" data-name="Group 278">
      <g id="Group_277" data-name="Group 277">
        <path id="Path_434" data-name="Path 434" d="M401.706,642.186a6.724,6.724,0,0,1-5.839-3.415l-4.408,5,8.2,4.734,2.123-6.317Z" fill="#477aa2"/>
      </g>
    </g>
    <g id="Group_280" data-name="Group 280">
      <g id="Group_279" data-name="Group 279">
        <path id="Path_435" data-name="Path 435" d="M391.178,646.417l-4.746,8.22v-5.743h-7.3v9.333h13.665l4.71-8.157Z" fill="#477aa2"/>
      </g>
    </g>
    <g id="Group_282" data-name="Group 282">
      <g id="Group_281" data-name="Group 281">
        <path id="Path_436" data-name="Path 436" d="M372.312,642.807v-1.623h-2.759v17.042h7.141v-9.577A6.1,6.1,0,0,1,372.312,642.807Z" fill="#477aa2"/>
      </g>
    </g>
    <g id="Group_284" data-name="Group 284">
      <g id="Group_283" data-name="Group 283">
        <path id="Path_437" data-name="Path 437" d="M404.686,641.184l-.6,1.776-2.123,6.317-.948,2.82-1.406-.811-4.007,6.94h10.385V641.184Z" fill="#477aa2"/>
      </g>
    </g>
  </g>
</svg>
