<svg xmlns="http://www.w3.org/2000/svg" width="36.439" height="36.439" viewBox="0 0 36.439 36.439">
  <g id="media_icon_2-1" transform="translate(-762.553 -388.147)">
    <path id="Path_466" data-name="Path 466" d="M779.122,395.146l2.705-3.618h17.165v-3.381H762.553v7Zm-4.34-4.519h2.135v2.135h-2.135Zm-4.38,0h2.135v2.135H770.4Zm-4.38,0h2.135v2.135h-2.135Z" fill="#477aa2"/>
    <path id="Path_467" data-name="Path 467" d="M772.033,421.757l-.156.674-2.492.489v1.666h5.351a6.17,6.17,0,0,1-.054-.806,6.09,6.09,0,1,1,12.18,0,6.17,6.17,0,0,1-.054.806h5.351V422.92l-2.492-.489-.155-.674a8.924,8.924,0,0,0-1.13-2.724l-.367-.587,1.417-2.11-1.216-1.216-2.11,1.418-.586-.367a8.884,8.884,0,0,0-2.724-1.13l-.675-.156-.489-2.492h-1.72l-.489,2.492-.674.156a8.873,8.873,0,0,0-2.724,1.13l-.587.367-2.11-1.418-1.216,1.216,1.418,2.11-.367.587a8.873,8.873,0,0,0-1.13,2.724Z" fill="#477aa2"/>
    <path id="Path_468" data-name="Path 468" d="M782.9,393.663l-2.7,3.618H762.553v27.3h4.7v-3.422l2.882-.566a10.957,10.957,0,0,1,.867-2.09l-1.639-2.439,3.7-3.7,2.439,1.639a10.957,10.957,0,0,1,2.09-.867l.566-2.882h5.233l.566,2.882a10.983,10.983,0,0,1,2.09.867l2.439-1.639,3.7,3.7-1.638,2.439a11.024,11.024,0,0,1,.867,2.09l2.881.566v3.422h4.7V393.663Z" fill="#477aa2"/>
    <path id="Path_469" data-name="Path 469" d="M784.727,423.78a3.955,3.955,0,1,0-7.827.806h7.745a4.011,4.011,0,0,0,.082-.806Z" fill="#477aa2"/>
  </g>
</svg>
