<svg xmlns="http://www.w3.org/2000/svg" width="36.439" height="36.439" viewBox="0 0 36.439 36.439">
  <g id="media_icon_2-2" transform="translate(-762.553 -591.147)">
    <path id="Path_438" data-name="Path 438" d="M779.124,623.441H762.553v4.145h18.666S779.174,623.559,779.124,623.441Z" fill="#477aa2"/>
    <path id="Path_439" data-name="Path 439" d="M768.95,609.545h3.971v2.133H768.95Z" fill="#477aa2"/>
    <path id="Path_440" data-name="Path 440" d="M778.915,619.9a5.354,5.354,0,0,1,.819-1.675h-12.88v-2.135h11.967l-3.415-6.956a3.963,3.963,0,0,1-.349-1.024v5.7h-8.242v-6.4h8.169a3.972,3.972,0,0,1,.786-2.42h-8.916v-2.135h19.275v2.135h-4.008a3.946,3.946,0,0,1,.358.579l.014.028,2.341,4.8a3.571,3.571,0,0,0,3.647-.689,3.982,3.982,0,0,1,1.787-.427l.083,0V591.147h-27.8V621.3h16.155a5.354,5.354,0,0,1,.207-1.4Zm-7.875-20.655H769.9l-1.571-1.877v1.877h-1.357v-4.132h1.145l1.57,1.877v-1.877h1.358Zm4.109,0h-3.436v-4.132h3.359v1.05h-1.989v.485h1.747v1h-1.747v.543h2.066Zm4.386,0-.667-2.208-.7,2.208h-1.494l-1.322-4.132h1.434l.72,2.349.762-2.349h1.281l.72,2.379.762-2.379h1.322l-1.322,4.132Zm4.664.094a3.7,3.7,0,0,1-1.8-.425l.448-1.015a2.839,2.839,0,0,0,1.364.378c.4,0,.537-.083.537-.225,0-.519-2.285-.1-2.285-1.641,0-.767.644-1.393,1.925-1.393a3.276,3.276,0,0,1,1.558.36l-.419,1.01a2.543,2.543,0,0,0-1.151-.307c-.407,0-.537.118-.537.26,0,.495,2.285.082,2.285,1.6C786.124,598.7,785.48,599.338,784.2,599.338Z" fill="#477aa2"/>
    <path id="Path_441" data-name="Path 441" d="M793.353,610.94a1.9,1.9,0,0,0-.835,2.548l-.557-1.1a1.9,1.9,0,0,0-3.384,1.713l-.469-.927a1.9,1.9,0,1,0-3.383,1.713l-4.088-8.386a1.9,1.9,0,1,0-3.383,1.713l5.086,10.359a3.286,3.286,0,0,0-1.216,4.282l2.412,4.731h15.456v-10l-3.091-5.811a1.9,1.9,0,0,0-2.548-.836Z" fill="#477aa2"/>
  </g>
</svg>
