<svg xmlns="http://www.w3.org/2000/svg" width="36.439" height="36.44" viewBox="0 0 36.439 36.44">
  <g id="media_icon_1-1" transform="translate(-369.553 -388.147)">
    <g id="Group_291" data-name="Group 291">
      <path id="Path_459" data-name="Path 459" d="M403.979,388.147H371.564a2.011,2.011,0,0,0-2.011,2.012v32.415a2.012,2.012,0,0,0,2.011,2.013h17.451V410.475h-4.748v-5.5h4.748v-4.056c0-4.706,2.874-7.27,7.073-7.27a39.471,39.471,0,0,1,4.242.216v4.919h-2.912c-2.283,0-2.724,1.086-2.724,2.678v3.51h5.447l-.712,5.5h-4.735v14.112h9.285a2.014,2.014,0,0,0,2.013-2.011V390.157A2.012,2.012,0,0,0,403.979,388.147Z" fill="#477aa2"/>
    </g>
  </g>
</svg>
