<svg xmlns="http://www.w3.org/2000/svg" width="36.438" height="36.439" viewBox="0 0 36.438 36.439">
  <g id="media_icon_1-3" transform="translate(-369.553 -894.147)">
    <path id="Path_460" data-name="Path 460" d="M403.584,905.662a2.137,2.137,0,0,0-2.857-.147c-.122.1-.028.012-1.873,1.858l4.791,4.791,1.721-1.7a2.136,2.136,0,0,0,0-3.019Z" fill="#477aa2"/>
    <path id="Path_461" data-name="Path 461" d="M389.029,917.288l-2.818,6.039a1.068,1.068,0,0,0,1.419,1.419l6.039-2.818c.239-.112-.485.565,8.456-8.264l-4.781-4.782c-8.865,8.865-8.2,8.163-8.315,8.406Z" fill="#477aa2"/>
    <path id="Path_462" data-name="Path 462" d="M395.467,923.24a3.2,3.2,0,0,1-.9.623l-6.039,2.818a3.2,3.2,0,0,1-4.257-4.257l2.818-6.039a3.21,3.21,0,0,1,.638-.91l9.079-9.079V897.35a3.207,3.207,0,0,0-3.2-3.2H372.755a3.206,3.206,0,0,0-3.2,3.2v30.034a3.205,3.205,0,0,0,3.2,3.2h20.853a3.206,3.206,0,0,0,3.2-3.2v-5.471Zm-20.221-22.189h15.942a1.067,1.067,0,1,1,0,2.135H375.246a1.067,1.067,0,0,1,0-2.135Zm0,5.694h12.526a1.068,1.068,0,1,1,0,2.135H375.246a1.068,1.068,0,0,1,0-2.135Zm-1.067,6.761a1.068,1.068,0,0,1,1.067-1.068h9.11a1.068,1.068,0,1,1,0,2.135h-9.11A1.067,1.067,0,0,1,374.179,913.506Z" fill="#477aa2"/>
  </g>
</svg>
