<svg xmlns="http://www.w3.org/2000/svg" width="627" height="119.779" viewBox="0 0 627 119.779">
  <g id="webtitle_02" transform="translate(-2643.003 -531.872)">
    <g id="Group_265" data-name="Group 265" transform="translate(54.003 1146.022)">
      <g id="Group_264" data-name="Group 264">
        <path id="Path_394" data-name="Path 394" d="M2657.807-581.254l-3.159-4.853h-19.8v14.484H2662.2v5.007h-27.349v15.1H2664.9v5.008h-67.027v-5.008h29.893v-15.1h-27.118v-5.007h27.118v-14.484h-18.413l-3.7,4.853h-9.09l20.647-26.888h-13.944v-5.084h41.987l21.032,31.972Zm-17.257-26.888H2626.3l-13.1,17.027h38.289Z" fill="#fff"/>
        <path id="Path_395" data-name="Path 395" d="M2691.852-600.129v11.864h45.839v41.757h-26.656l-2.542-5.085h22.033v-31.664h-38.674v25.192l-10.015,11.557h-8.783l11.634-14.176v-39.445h-10.555v-5.008h32.049l-2.774-8.936h7.473l2.7,8.936h29.044v5.008Z" fill="#fff"/>
        <path id="Path_396" data-name="Path 396" d="M2759.872-586.492h5.317v39.984H2758.1v-36.6h-7.551L2765.573-614h7.7Zm10.941,39.984v-5.008h26.424l12.173-41.448h7.242l-12.173,41.448h15.486v5.008Zm1.155-51.464v-5.007h20.261l-3.466-11.094h7.4l3.467,11.094H2818.5v5.007Zm11.479,41.834-9.861-36.826h7.318l9.862,36.826Z" fill="#fff"/>
        <path id="Path_397" data-name="Path 397" d="M2831.205-605.06h7.936l4.468-9.013h3.7l-4.468,9.013h13.328v58.552h-24.962Zm3.467,2.312v24.884H2852.7v-24.884Zm0,27.2v26.734H2852.7v-26.734Zm33.513,26.734h22.574v-52.158h-22.574l-5.469,12.558h-3.544l11.171-25.654h3.544l-4.7,10.785h25.039v56.78H2869.5Zm-3.081-37.443h3.466l13.714,25.963h-3.467Z" fill="#fff"/>
        <path id="Path_398" data-name="Path 398" d="M2905.543-576.323l7.473-9.323h3.313l-7.474,9.323Zm20.262-24.961h14.1v12.4h-14.1v13.4h-3.236v-13.4h-14.1v-12.4h14.1v-6.164h-16.41v-2.311h16.41v-4.314h3.236v4.314h16.41v2.311H2925.8Zm-19.646,52.465h11.48v-16.718h3.389v16.718h17.181v-20.955h-31.125v-2.312h64.946v2.312H2941.6v8.32h27.272v2.311H2941.6v10.324h31.355v2.311h-66.8Zm5.547-50.155v7.782h10.863v-7.782Zm14.1,0v7.782h10.863v-7.782Zm7.088,13.328h3.313l6.086,7.551h-3.313Zm21.725-1.848-9.63,12.018h-3.775l11.172-13.867-8.167-6.626h4.391l5.47,4.469,11.248-14.022h-13.1l-5.624,7.011h-3.775l12.481-15.562h3.775l-5.008,6.24h19.029v2.311h-4.083l-12.634,15.871,17.411,14.175h-4.392Z" fill="#fff"/>
        <path id="Path_399" data-name="Path 399" d="M3029.727-610.145h-26.272L2985.814-582.1h-3.93l19.029-30.354h31.279L3051.3-582.1h-3.93Zm-39.83,32.358h53.312v31.279H2989.9Zm3.466,2.311v26.657h46.379v-26.657Zm2.235-17.642h41.91v2.311H2995.6Z" fill="#fff"/>
        <path id="Path_400" data-name="Path 400" d="M3072.709-583.873v37.365h-3.468v-36.98l-5.7,6.01h-4.314l19.182-20.109h4.315l-13.1,13.714Zm-12.789-12.019,17.411-18.258h4.315l-17.412,18.258ZM3114-546.508h-24.346l-1.309-2.311h22.111v-38.29H3082.57v-2.311h45.146v2.311H3114Zm-27.89-65.562h38.213v2.311h-38.213Z" fill="#fff"/>
        <path id="Path_401" data-name="Path 401" d="M3155.983-610.145H3146.2l-6.857,14.87h-3.621l7.935-17.181H3158.6l7.935,17.181h-3.7ZM3136.8-548.588l12.557-2.08V-577.4h-12.095v-2.312h12.095v-10.4h-10.246v-2.312h23.883v2.312h-10.247v10.4h12.1v2.312h-12.1v26.194l13.1-2.157v2.542l-29.045,4.776Zm.925-23.189h3.235l3.544,15.1h-3.235Zm19.953,15.1,3.544-15.1h3.159l-3.544,15.1Zm8.474-54.16h3.621l8.86,15.023h-3.62Zm18.722,62.019h13.636v-15.1h-26.348v17.411h-3.236V-592.5h14.792v-21.571h3.236V-592.5h14.792v45.994h-15.64Zm-12.712-41.371V-579.4h26.348V-590.19Zm0,13.1v10.864h26.348v-10.864Zm19.876-18.721,8.783-15.023h3.7l-8.784,15.023Z" fill="#fff"/>
      </g>
    </g>
    <g id="Group_268" data-name="Group 268" transform="translate(54.003 1146.022)">
      <g id="Group_267" data-name="Group 267">
        <path id="Path_402" data-name="Path 402" d="M2616.514-499.315l-2.711-6.628h-10.619l-2.711,6.628h-3.588l9.924-24.06h3.369l9.924,24.06Zm-8.021-19.445-3.955,9.668h7.91Z" fill="#fff"/>
        <path id="Path_403" data-name="Path 403" d="M2630.2-499.315v-24.06h3.369v24.06Z" fill="#fff"/>
        <path id="Path_404" data-name="Path 404" d="M2647.522-499.315v-24.06h3.369v24.06Z" fill="#fff"/>
        <path id="Path_405" data-name="Path 405" d="M2661.946-506.016v-2.857h9.156v2.857Z" fill="#fff"/>
        <path id="Path_406" data-name="Path 406" d="M2682.487-507.48v8.2h-3.3V-515.5h3.3v1.978a5.462,5.462,0,0,1,2.454-1.575,12.733,12.733,0,0,1,3.186-.4v3.223C2684.355-512.132,2682.487-510.557,2682.487-507.48Z" fill="#fff"/>
        <path id="Path_407" data-name="Path 407" d="M2709.034-501.182a8.2,8.2,0,0,1-5.823,2.16,8.076,8.076,0,0,1-5.822-2.16,7.8,7.8,0,0,1-2.491-6.08,8.618,8.618,0,0,1,2.271-6.115,8,8,0,0,1,6.042-2.453,8,8,0,0,1,6.043,2.453,8.776,8.776,0,0,1,2.27,6.115A7.922,7.922,0,0,1,2709.034-501.182Zm-2.344-10a4.462,4.462,0,0,0-3.479-1.5,4.489,4.489,0,0,0-3.516,1.5,5.764,5.764,0,0,0-1.318,3.918,4.879,4.879,0,0,0,1.393,3.7,4.552,4.552,0,0,0,3.441,1.428,4.665,4.665,0,0,0,3.479-1.39,5.189,5.189,0,0,0,1.355-3.737A5.785,5.785,0,0,0,2706.69-511.18Z" fill="#fff"/>
        <path id="Path_408" data-name="Path 408" d="M2730.672-499.277V-501.4a7.082,7.082,0,0,1-5.017,2.38c-4.321,0-6.445-2.343-6.445-7.068v-9.375h3.333v9.668c0,1.539.293,2.565.915,3.076a3.215,3.215,0,0,0,2.2.586,4.625,4.625,0,0,0,2.564-.842,6.689,6.689,0,0,0,2.453-2.673v-9.815H2734v16.188Z" fill="#fff"/>
        <path id="Path_409" data-name="Path 409" d="M2753.52-499.315v-9.228c0-2.746-1.136-4.139-3.407-4.139a5.593,5.593,0,0,0-4.724,2.784v10.583h-3.332v-16.259h3.332v1.611a7.436,7.436,0,0,1,4.944-1.867c4.321,0,6.519,2.453,6.519,7.287v9.228Z" fill="#fff"/>
        <path id="Path_410" data-name="Path 410" d="M2776.879-499.277V-501a6.623,6.623,0,0,1-5.055,1.977,6.407,6.407,0,0,1-5.052-2.38,9.051,9.051,0,0,1-2.235-6.335,8.609,8.609,0,0,1,2.051-5.86,6.889,6.889,0,0,1,5.42-2.38,6.95,6.95,0,0,1,4.871,1.794V-523.3h3.332v24.024Zm-1.319-12.049a4.409,4.409,0,0,0-3.332-1.465,3.762,3.762,0,0,0-3,1.428,5.262,5.262,0,0,0-1.246,3.626,6.162,6.162,0,0,0,1.319,4.137,3.543,3.543,0,0,0,2.747,1.429,4.584,4.584,0,0,0,3.405-1.282,5.374,5.374,0,0,0,1.429-3.991A5.6,5.6,0,0,0,2775.56-511.326Z" fill="#fff"/>
        <path id="Path_411" data-name="Path 411" d="M2808.547-520.042v-3.626h3.369v3.626Zm0,20.727v-16.15h3.369v16.15Z" fill="#fff"/>
        <path id="Path_412" data-name="Path 412" d="M2834.361-499.315v-9.228c0-2.746-1.135-4.139-3.406-4.139a5.6,5.6,0,0,0-4.725,2.784v10.583H2822.9v-16.259h3.332v1.611a7.438,7.438,0,0,1,4.945-1.867c4.321,0,6.518,2.453,6.518,7.287v9.228Z" fill="#fff"/>
        <path id="Path_413" data-name="Path 413" d="M2850.945-512.682v9.046c0,.513.037.806.184.952.109.184.329.256.658.256h2.93v3.113h-3.039a3.82,3.82,0,0,1-3.113-1.1,5.343,5.343,0,0,1-.916-3.48v-8.789h-2.819v-3.148h2.819V-519.9h3.3v4.066h3.918v3.148Z" fill="#fff"/>
        <path id="Path_414" data-name="Path 414" d="M2869-499.022a6.442,6.442,0,0,1-5.347-2.453,9.4,9.4,0,0,1-1.831-6.08,8.553,8.553,0,0,1,2.2-6.152,6.764,6.764,0,0,1,5.089-2.123,6.628,6.628,0,0,1,4.945,2.051,7.941,7.941,0,0,1,2.051,5.6v1.538h-10.913c.292,3,1.574,4.468,3.808,4.468,1.649,0,3.039-1.025,4.211-3.076l2.93,1.538C2874.27-500.56,2871.889-499.022,2869-499.022Zm.109-13.7c-1.793,0-3,.99-3.662,2.894h7.106C2871.889-511.728,2870.754-512.718,2869.1-512.718Z" fill="#fff"/>
        <path id="Path_415" data-name="Path 415" d="M2896.31-496.531a6.952,6.952,0,0,1-5.273,2.16,7.377,7.377,0,0,1-6.957-4.1l2.93-1.427a4.39,4.39,0,0,0,4.027,2.417,3.788,3.788,0,0,0,2.858-1.172,4.885,4.885,0,0,0,1.1-3.4v-.587a5.917,5.917,0,0,1-4.211,1.868,6.88,6.88,0,0,1-5.236-2.2,7.257,7.257,0,0,1-2.088-5.273,7.463,7.463,0,0,1,2.051-5.347,6.964,6.964,0,0,1,5.273-2.2,6.664,6.664,0,0,1,4.211,1.5v-1.244h3.333v13.477A7.832,7.832,0,0,1,2896.31-496.531Zm-2.526-14.942a3.946,3.946,0,0,0-3-1.209,3.488,3.488,0,0,0-2.71,1.283,4.489,4.489,0,0,0-1.172,3.149,4.088,4.088,0,0,0,1.172,3,3.377,3.377,0,0,0,2.71,1.282,4.029,4.029,0,0,0,3-1.172,4.347,4.347,0,0,0,1.172-3.222A4.44,4.44,0,0,0,2893.784-511.473Z" fill="#fff"/>
        <path id="Path_416" data-name="Path 416" d="M2909.673-507.48v8.2h-3.3V-515.5h3.3v1.978a5.456,5.456,0,0,1,2.454-1.575,12.723,12.723,0,0,1,3.186-.4v3.223C2911.541-512.132,2909.673-510.557,2909.673-507.48Z" fill="#fff"/>
        <path id="Path_417" data-name="Path 417" d="M2933.51-499.277a7.909,7.909,0,0,1-.549-2.015,7.7,7.7,0,0,1-5.494,2.27,6.018,6.018,0,0,1-3.845-1.171,3.968,3.968,0,0,1-1.538-3.3,5,5,0,0,1,2.746-4.652c1.686-.915,4.359-1.464,7.985-1.611a2.975,2.975,0,0,0-3.3-2.966,4.019,4.019,0,0,0-3.552,2.161l-3.112-1.428a7.123,7.123,0,0,1,6.664-3.845,6.592,6.592,0,0,1,5.09,1.94,7.445,7.445,0,0,1,1.612,5.091v6.885a7.345,7.345,0,0,0,.586,2.637Zm-7.984-4.212c0,.915.622,1.354,1.941,1.354a5.272,5.272,0,0,0,3.479-1.244,5.337,5.337,0,0,0,1.869-3.3C2927.943-506.565,2925.526-505.5,2925.526-503.489Z" fill="#fff"/>
        <path id="Path_418" data-name="Path 418" d="M2950.058-512.682v9.046c0,.513.036.806.182.952.111.184.33.256.66.256h2.93v3.113h-3.04a3.819,3.819,0,0,1-3.112-1.1,5.343,5.343,0,0,1-.916-3.48v-8.789h-2.821v-3.148h2.821V-519.9h3.3v4.066h3.919v3.148Z" fill="#fff"/>
        <path id="Path_419" data-name="Path 419" d="M2968.108-499.022a6.439,6.439,0,0,1-5.346-2.453,9.4,9.4,0,0,1-1.831-6.08,8.554,8.554,0,0,1,2.2-6.152,6.768,6.768,0,0,1,5.091-2.123,6.626,6.626,0,0,1,4.943,2.051,7.933,7.933,0,0,1,2.051,5.6v1.538H2964.3c.293,3,1.575,4.468,3.808,4.468,1.648,0,3.04-1.025,4.212-3.076l2.93,1.538C2973.382-500.56,2971-499.022,2968.108-499.022Zm.111-13.7c-1.795,0-3,.99-3.662,2.894h7.1C2971-511.728,2969.866-512.718,2968.219-512.718Z" fill="#fff"/>
        <path id="Path_420" data-name="Path 420" d="M2994.91-499.277V-501a6.618,6.618,0,0,1-5.053,1.977,6.411,6.411,0,0,1-5.054-2.38,9.055,9.055,0,0,1-2.234-6.335,8.612,8.612,0,0,1,2.051-5.86,6.892,6.892,0,0,1,5.42-2.38,6.944,6.944,0,0,1,4.87,1.794V-523.3h3.333v24.024Zm-1.318-12.049a4.41,4.41,0,0,0-3.332-1.465,3.762,3.762,0,0,0-3,1.428,5.257,5.257,0,0,0-1.245,3.626,6.161,6.161,0,0,0,1.318,4.137,3.541,3.541,0,0,0,2.746,1.429,4.58,4.58,0,0,0,3.406-1.282,5.37,5.37,0,0,0,1.428-3.991A5.6,5.6,0,0,0,2993.592-511.326Z" fill="#fff"/>
        <path id="Path_421" data-name="Path 421" d="M3043.682-499.277v-10.036q0-3.4-2.417-3.405a5.191,5.191,0,0,0-2.417.733,5.781,5.781,0,0,0-1.978,1.721c.036.512.073.879.073,1.1v9.889h-3.369v-9.889c0-2.344-.842-3.552-2.453-3.552a4.78,4.78,0,0,0-2.271.7,5.616,5.616,0,0,0-1.868,1.684v11.061h-3.369v-16.334h3.369v1.428a6.727,6.727,0,0,1,4.139-1.647,5.358,5.358,0,0,1,4.834,2.562,7.592,7.592,0,0,1,5.31-2.562,5.312,5.312,0,0,1,4.505,2.051,7.74,7.74,0,0,1,1.281,4.613v9.889Z" fill="#fff"/>
        <path id="Path_422" data-name="Path 422" d="M3066.16-499.277a7.948,7.948,0,0,1-.549-2.015,7.706,7.706,0,0,1-5.494,2.27,6.02,6.02,0,0,1-3.845-1.171,3.969,3.969,0,0,1-1.538-3.3,5,5,0,0,1,2.746-4.652c1.686-.915,4.359-1.464,7.985-1.611a2.975,2.975,0,0,0-3.3-2.966,4.019,4.019,0,0,0-3.552,2.161l-3.112-1.428a7.124,7.124,0,0,1,6.664-3.845,6.6,6.6,0,0,1,5.091,1.94,7.449,7.449,0,0,1,1.611,5.091v6.885a7.361,7.361,0,0,0,.586,2.637Zm-7.983-4.212c0,.915.622,1.354,1.94,1.354a5.275,5.275,0,0,0,3.48-1.244,5.338,5.338,0,0,0,1.868-3.3C3060.594-506.565,3058.177-505.5,3058.177-503.489Z" fill="#fff"/>
        <path id="Path_423" data-name="Path 423" d="M3080.8-507.48v8.2h-3.3V-515.5h3.3v1.978a5.456,5.456,0,0,1,2.454-1.575,12.721,12.721,0,0,1,3.185-.4v3.223C3082.672-512.132,3080.8-510.557,3080.8-507.48Z" fill="#fff"/>
        <path id="Path_424" data-name="Path 424" d="M3104.055-499.315l-5.237-8.2-1.9,1.868v6.335h-3.333v-24.023h3.333v13.514l6.225-6.19h4.322l-6.373,6.372,6.812,10.327Z" fill="#fff"/>
        <path id="Path_425" data-name="Path 425" d="M3121.48-499.022a6.438,6.438,0,0,1-5.346-2.453,9.4,9.4,0,0,1-1.831-6.08,8.553,8.553,0,0,1,2.2-6.152,6.766,6.766,0,0,1,5.09-2.123,6.624,6.624,0,0,1,4.944,2.051,7.937,7.937,0,0,1,2.051,5.6v1.538h-10.913c.293,3,1.574,4.468,3.808,4.468,1.649,0,3.04-1.025,4.211-3.076l2.93,1.538C3126.754-500.56,3124.373-499.022,3121.48-499.022Zm.11-13.7c-1.794,0-3,.99-3.662,2.894h7.1C3124.373-511.728,3123.238-512.718,3121.59-512.718Z" fill="#fff"/>
        <path id="Path_426" data-name="Path 426" d="M3141.508-512.682v9.046c0,.513.037.806.183.952.11.184.33.256.659.256h2.929v3.113h-3.039a3.821,3.821,0,0,1-3.113-1.1,5.349,5.349,0,0,1-.915-3.48v-8.789h-2.819v-3.148h2.819V-519.9h3.3v4.066h3.918v3.148Z" fill="#fff"/>
        <path id="Path_427" data-name="Path 427" d="M3155.713-520.042v-3.626h3.369v3.626Zm0,20.727v-16.15h3.369v16.15Z" fill="#fff"/>
        <path id="Path_428" data-name="Path 428" d="M3181.527-499.315v-9.228c0-2.746-1.134-4.139-3.405-4.139a5.592,5.592,0,0,0-4.724,2.784v10.583h-3.333v-16.259h3.333v1.611a7.436,7.436,0,0,1,4.944-1.867c4.321,0,6.518,2.453,6.518,7.287v9.228Z" fill="#fff"/>
        <path id="Path_429" data-name="Path 429" d="M3205.4-496.531a6.954,6.954,0,0,1-5.273,2.16,7.378,7.378,0,0,1-6.959-4.1l2.93-1.427a4.394,4.394,0,0,0,4.029,2.417,3.779,3.779,0,0,0,2.855-1.172,4.88,4.88,0,0,0,1.1-3.4v-.587a5.921,5.921,0,0,1-4.212,1.868,6.885,6.885,0,0,1-5.237-2.2,7.263,7.263,0,0,1-2.087-5.273,7.464,7.464,0,0,1,2.051-5.347,6.965,6.965,0,0,1,5.273-2.2,6.671,6.671,0,0,1,4.212,1.5v-1.244h3.332v13.477A7.831,7.831,0,0,1,3205.4-496.531Zm-2.527-14.942a3.948,3.948,0,0,0-3-1.209,3.49,3.49,0,0,0-2.71,1.283,4.489,4.489,0,0,0-1.172,3.149,4.088,4.088,0,0,0,1.172,3,3.379,3.379,0,0,0,2.71,1.282,4.033,4.033,0,0,0,3-1.172,4.343,4.343,0,0,0,1.172-3.222A4.435,4.435,0,0,0,3202.873-511.473Z" fill="#fff"/>
      </g>
    </g>
    <line id="Line_22" data-name="Line 22" x2="627" transform="translate(2643.003 613.022)" fill="none" stroke="#fff" stroke-miterlimit="10" stroke-width="2"/>
  </g>
</svg>
