<svg xmlns="http://www.w3.org/2000/svg" width="590.066" height="129.382" viewBox="0 0 590.066 129.382">
  <g id="webtitle_01" transform="translate(-642.367 647.624)">
    <g id="Group_15" data-name="Group 15">
      <g id="Group_13" data-name="Group 13">
        <path id="Path_38" data-name="Path 38" d="M828.847-625.683v4.834h9.737v20.6H816.795v4.436h23.643v19.4H828.65l-1.261-2.451h-1.323l-1.124-2.516-27.949,1.787v-4.3l13.71-.861v-7.086H793.682v15.431h-6.026v-15.431h-2.651v-3.974h2.651v-2.45h6.026v2.45H810.7v-4.436H789.114v-20.6h9.137v-4.834H784.942v-4.04h13.309v-4.768h6.092v4.768h18.411v-4.768h6.093v4.768h13.642v4.04ZM810.7-616.876h-15.63v4.173H810.7Zm0,8.212h-15.63v4.372H810.7Zm12.051-17.019H804.343v4.834h18.411Zm9.671,8.807h-15.63v4.173h15.63Zm0,8.212h-15.63v4.372h15.63Zm2.051,16.822H816.795v6.689l6.226-.4-1.987-4.3h6.489l4.3,9.4h2.648Z" fill="#fff"/>
        <path id="Path_39" data-name="Path 39" d="M849.2-625.353v-4.37h26.687l-2.514-4.9h6.556l2.451,4.9h25.494v4.37Zm34.107,36.425v12.45H859.2l-2.121-4.3H877.15v-11.191l15.826-6.623h-42.45v-4.3h55.629v4.238ZM853.64-606.875v-14.5h49.868v14.5Zm43.708-10.2H859.733v5.894h37.615Z" fill="#fff"/>
        <path id="Path_40" data-name="Path 40" d="M971.345-576.411H935.254l-8.414-6.094-5.5,6.027h-7.88l9.8-10.86v-10.73h-7.617v-4.3l8.08-12.384h-9.007v-4.371h15.763v4.371l-8.013,12.384h6.953v15.363l8.74,6.293H973.53Zm-47.616-45.63-8.476-12.317h7.152l8.544,12.317Zm32.65,33.444v5.827H950.22V-588.6H932.8v-4.3H950.22v-4.3H935.384v-4.238H950.22v-4.372H933.463v-4.239h9.007l-3.841-6.422h-5.1v-4.306h16.557v-4.967h-14.7v-4.238h14.7v-4.57h6.026v4.57h14.769v4.238H956.113v4.967h16.823v4.306h-4.768l-4.042,6.422H972.8v4.239H956.379v4.372h14.436v4.238H956.379v4.3h16.754v4.3Zm-11.191-27.88,3.708,6.422h8.874l3.971-6.422Z" fill="#fff"/>
        <path id="Path_41" data-name="Path 41" d="M1014.747-576.478h-6.226l-11.788-4.9-12.119,4.9h-6.226l15.234-6.225-7.884-3.312v-6.422h-6.623v-1.856h6.623v-3.51h2.651v3.51h17.017v-3.51h2.651v3.51h6.887v1.856h-6.887v6.422l-8.146,3.312Zm-3.115-36.688H998.257v3.775h14.369v9.8H981.17v-9.8h14.5v-3.775H982.23v-8.013h-2.848v-1.854h2.848v-7.882h13.442v-3.643h2.585v3.643h13.375v7.882h3.312v1.854h-3.312Zm-27.748,5.629v6.093h11.788v-6.093Zm.927-21.59v6.094h10.861v-6.094Zm0,7.948v6.157h10.861v-6.157Zm20.6,28.742H988.389v4.9l8.41,3.51,8.607-3.51Zm-7.149-36.69v6.094h10.861v-6.094Zm0,7.948v6.157h10.861v-6.157Zm0,13.642v6.093h11.788v-6.093Zm26.224,13.707-6.226,17.352h-2.915l7.287-20.265-7.683-12.053h3.244l5.566,8.809,7.746-21.656h-10.531l-3.774,9.536h-3.045l9.007-22.451h2.978l-4.3,10.861h16.027v2.054h-3.445l-8.807,24.569,13.046,20.6h-3.179Z" fill="#fff"/>
        <path id="Path_42" data-name="Path 42" d="M1054.37-617.206v40.728h-2.911v-39.868l-4.506,7.749h-3.177l15.1-25.961h3.178l-10.067,17.352Zm5.165,38.741h24.24l12.649-37.284h3.048l-12.652,37.284h16.227v1.987h-43.512Zm1.128-45.629h20.464l-3.644-10.464h3.048l3.641,10.464h17.881v1.988h-41.39Zm3.047,8.345h3.045l10.6,31.456h-3.048Z" fill="#fff"/>
        <path id="Path_43" data-name="Path 43" d="M1120.421-608.6v32.119h-2.978v-31.788l-4.9,5.166h-3.708l16.49-17.286h3.709L1117.773-608.6Zm-10.992-10.331,14.966-15.7h3.709l-14.966,15.7Zm46.489,42.45h-20.925l-1.127-1.987h19.008v-32.914H1128.9v-1.987h38.81v1.987h-11.789Zm-23.973-56.358h32.847v1.988h-32.847Z" fill="#fff"/>
        <path id="Path_44" data-name="Path 44" d="M1190.71-631.18H1182.3L1176.4-618.4h-3.112l6.823-14.768h12.845l6.823,14.768H1196.6Zm-16.491,52.913,10.8-1.787v-22.979h-10.4v-1.988h10.4v-8.94h-8.807v-1.988h20.528v1.988h-8.807v8.94h10.4v1.988h-10.4v22.515l11.258-1.854v2.186l-24.967,4.1Zm.794-19.933h2.784l3.045,12.981h-2.781Zm17.154,12.981,3.048-12.981h2.714l-3.048,12.981Zm7.286-46.556h3.111l7.617,12.913h-3.115Zm16.09,53.31h11.721v-12.98h-22.645v14.967h-2.785v-39.536h12.715v-18.544h2.785v18.544h12.715v39.536H1216.6Zm-10.924-35.563v9.272h22.645v-9.272Zm0,11.258v9.339h22.645v-9.339Zm17.083-16.092,7.55-12.913h3.181l-7.549,12.913Z" fill="#fff"/>
      </g>
      <g id="Group_14" data-name="Group 14">
        <path id="Path_45" data-name="Path 45" d="M813.606-532.344h-3.18l-4.7-17.594-4.7,17.594h-3.18l-6.5-23.212h3.391l4.664,17.806,4.768-17.806h3.108l4.77,17.806,4.662-17.806H820.1Z" fill="#fff"/>
        <path id="Path_46" data-name="Path 46" d="M842.332-532.344v-10.14H830.958v10.14h-3.252v-23.212h3.252v10.034h11.374v-10.034h3.25v23.212Z" fill="#fff"/>
        <path id="Path_47" data-name="Path 47" d="M870.529-535.384c-2.191,2.049-5.194,3.04-9.079,3.04h-6.678v-23.212h6.678c4.027,0,7.065.884,9.079,2.65,2.154,1.944,3.25,4.982,3.25,9.115A11.043,11.043,0,0,1,870.529-535.384ZM868.338-550.5q-2.118-2.015-6.888-2.015h-3.428v17.134h3.428c3.038,0,5.3-.777,6.853-2.331a8.252,8.252,0,0,0,2.119-6.076C870.422-546.935,869.717-549.161,868.338-550.5Z" fill="#fff"/>
        <path id="Path_48" data-name="Path 48" d="M914.73-535.384c-2.191,2.049-5.193,3.04-9.078,3.04h-6.678v-23.212h6.678c4.026,0,7.064.884,9.078,2.65,2.155,1.944,3.25,4.982,3.25,9.115A11.04,11.04,0,0,1,914.73-535.384ZM912.539-550.5q-2.117-2.015-6.887-2.015h-3.428v17.134h3.428c3.038,0,5.3-.777,6.853-2.331a8.256,8.256,0,0,0,2.119-6.076C914.624-546.935,913.918-549.161,912.539-550.5Z" fill="#fff"/>
        <path id="Path_49" data-name="Path 49" d="M928.62-552.341v-3.5h3.249v3.5Zm0,20v-15.58h3.249v15.58Z" fill="#fff"/>
        <path id="Path_50" data-name="Path 50" d="M954.515-529.66a6.708,6.708,0,0,1-5.087,2.084,7.115,7.115,0,0,1-6.711-3.956l2.826-1.379a4.233,4.233,0,0,0,3.885,2.332,3.647,3.647,0,0,0,2.756-1.13,4.71,4.71,0,0,0,1.061-3.286v-.566a5.713,5.713,0,0,1-4.064,1.8,6.645,6.645,0,0,1-5.052-2.119,7.014,7.014,0,0,1-2.012-5.088,7.2,7.2,0,0,1,1.977-5.158,6.717,6.717,0,0,1,5.087-2.12,6.438,6.438,0,0,1,4.064,1.449V-548h3.214v13A7.555,7.555,0,0,1,954.515-529.66Zm-2.438-14.414a3.8,3.8,0,0,0-2.9-1.165A3.363,3.363,0,0,0,946.567-544a4.327,4.327,0,0,0-1.131,3.037,3.941,3.941,0,0,0,1.131,2.9,3.26,3.26,0,0,0,2.614,1.237,3.88,3.88,0,0,0,2.9-1.131,4.194,4.194,0,0,0,1.131-3.109A4.285,4.285,0,0,0,952.077-544.074Z" fill="#fff"/>
        <path id="Path_51" data-name="Path 51" d="M967.1-552.341v-3.5h3.25v3.5Zm0,20v-15.58h3.25v15.58Z" fill="#fff"/>
        <path id="Path_52" data-name="Path 52" d="M985.965-545.239v8.725c0,.495.035.778.177.918.106.177.318.249.635.249H989.6v3h-2.931a3.682,3.682,0,0,1-3-1.061,5.158,5.158,0,0,1-.884-3.356v-8.478h-2.719v-3.039h2.719V-552.2h3.18v3.921h3.78v3.039Z" fill="#fff"/>
        <path id="Path_53" data-name="Path 53" d="M1007.48-532.309a7.792,7.792,0,0,1-.53-1.944,7.434,7.434,0,0,1-5.3,2.191,5.8,5.8,0,0,1-3.708-1.131,3.825,3.825,0,0,1-1.484-3.18,4.812,4.812,0,0,1,2.65-4.486c1.624-.883,4.2-1.413,7.7-1.555a2.869,2.869,0,0,0-3.18-2.861,3.874,3.874,0,0,0-3.426,2.085l-3-1.378a6.875,6.875,0,0,1,6.429-3.71,6.362,6.362,0,0,1,4.911,1.873,7.183,7.183,0,0,1,1.554,4.91v6.641a7.125,7.125,0,0,0,.565,2.545Zm-7.7-4.064c0,.884.6,1.308,1.872,1.308a5.087,5.087,0,0,0,3.357-1.2,5.153,5.153,0,0,0,1.8-3.18C1002.112-539.341,999.779-538.315,999.779-536.373Z" fill="#fff"/>
        <path id="Path_54" data-name="Path 54" d="M1021.3-532.344v-23.212h3.25v23.212Z" fill="#fff"/>
        <path id="Path_55" data-name="Path 55" d="M1072.881-532.344v-17.171l-7.03,17.171h-3.038l-7.031-17.171v17.171h-3.214v-23.212h4.1l7.666,18.971L1072-555.556h4.1v23.212Z" fill="#fff"/>
        <path id="Path_56" data-name="Path 56" d="M1095.248-532.309a7.8,7.8,0,0,1-.53-1.944,7.434,7.434,0,0,1-5.3,2.191,5.808,5.808,0,0,1-3.71-1.131,3.829,3.829,0,0,1-1.482-3.18,4.812,4.812,0,0,1,2.65-4.486c1.624-.883,4.2-1.413,7.7-1.555a2.869,2.869,0,0,0-3.18-2.861,3.878,3.878,0,0,0-3.428,2.085l-3-1.378a6.875,6.875,0,0,1,6.429-3.71,6.362,6.362,0,0,1,4.911,1.873,7.187,7.187,0,0,1,1.554,4.91v6.641a7.126,7.126,0,0,0,.565,2.545Zm-7.7-4.064c0,.884.6,1.308,1.872,1.308a5.089,5.089,0,0,0,3.357-1.2,5.158,5.158,0,0,0,1.8-3.18C1089.879-539.341,1087.547-538.315,1087.547-536.373Z" fill="#fff"/>
        <path id="Path_57" data-name="Path 57" d="M1109.382-540.223v7.914H1106.2v-15.65h3.177v1.907a5.27,5.27,0,0,1,2.368-1.518,12.3,12.3,0,0,1,3.073-.389v3.108C1111.185-544.71,1109.382-543.19,1109.382-540.223Z" fill="#fff"/>
        <path id="Path_58" data-name="Path 58" d="M1131.819-532.344l-5.053-7.913-1.835,1.8v6.113h-3.217v-23.177h3.217v13.037l6-5.97h4.17l-6.148,6.147,6.571,9.963Z" fill="#fff"/>
        <path id="Path_59" data-name="Path 59" d="M1148.637-532.062a6.213,6.213,0,0,1-5.157-2.368,9.066,9.066,0,0,1-1.766-5.864,8.242,8.242,0,0,1,2.119-5.934,6.531,6.531,0,0,1,4.911-2.05,6.394,6.394,0,0,1,4.768,1.978,7.659,7.659,0,0,1,1.98,5.4v1.484h-10.528c.282,2.9,1.519,4.31,3.673,4.31,1.591,0,2.933-.988,4.063-2.967l2.827,1.483C1153.724-533.546,1151.428-532.062,1148.637-532.062Zm.107-13.213a3.58,3.58,0,0,0-3.533,2.791h6.854C1151.428-544.321,1150.333-545.275,1148.744-545.275Z" fill="#fff"/>
        <path id="Path_60" data-name="Path 60" d="M1167.965-545.239v8.725c0,.495.035.778.177.918.106.177.318.249.635.249h2.826v3h-2.931a3.683,3.683,0,0,1-3-1.061,5.159,5.159,0,0,1-.883-3.356v-8.478h-2.72v-3.039h2.72V-552.2h3.179v3.921h3.78v3.039Z" fill="#fff"/>
        <path id="Path_61" data-name="Path 61" d="M1181.675-552.341v-3.5h3.25v3.5Zm0,20v-15.58h3.25v15.58Z" fill="#fff"/>
        <path id="Path_62" data-name="Path 62" d="M1206.584-532.344v-8.9c0-2.649-1.095-3.991-3.284-3.991a5.387,5.387,0,0,0-4.557,2.684v10.211h-3.215v-15.687h3.215v1.554a7.171,7.171,0,0,1,4.768-1.8c4.169,0,6.288,2.368,6.288,7.03v8.9Z" fill="#fff"/>
        <path id="Path_63" data-name="Path 63" d="M1229.621-529.66a6.71,6.71,0,0,1-5.088,2.084,7.116,7.116,0,0,1-6.711-3.956l2.826-1.379a4.234,4.234,0,0,0,3.885,2.332,3.649,3.649,0,0,0,2.757-1.13,4.715,4.715,0,0,0,1.06-3.286v-.566a5.71,5.71,0,0,1-4.063,1.8,6.643,6.643,0,0,1-5.052-2.119,7.011,7.011,0,0,1-2.013-5.088,7.2,7.2,0,0,1,1.978-5.158,6.716,6.716,0,0,1,5.087-2.12,6.438,6.438,0,0,1,4.063,1.449V-548h3.215v13A7.559,7.559,0,0,1,1229.621-529.66Zm-2.437-14.414a3.806,3.806,0,0,0-2.9-1.165,3.364,3.364,0,0,0-2.615,1.237,4.327,4.327,0,0,0-1.13,3.037,3.94,3.94,0,0,0,1.13,2.9,3.26,3.26,0,0,0,2.615,1.237,3.886,3.886,0,0,0,2.9-1.131,4.2,4.2,0,0,0,1.131-3.109A4.289,4.289,0,0,0,1227.184-544.074Z" fill="#fff"/>
      </g>
    </g>
    <g id="Group_20" data-name="Group 20">
      <g id="Group_17" data-name="Group 17">
        <g id="Group_16" data-name="Group 16">
          <path id="Path_64" data-name="Path 64" d="M680.9-528.468l-.121-23.572L657.7-565.779l.12,23.571-15.177-8.836-.272-61.42,15.177,8.836.115,21.229,23.08,13.74-.115-21.882,14.951,8.724.271,62.073Z" fill="#fff"/>
        </g>
      </g>
      <g id="Group_19" data-name="Group 19">
        <g id="Group_18" data-name="Group 18">
          <path id="Path_65" data-name="Path 65" d="M721.306-530.109l-5.3-4.264.17,7.163-15.88,8.968-.2-63.548,15.881-8.967.171,7.246,5.522-10.462,34.246-19.339.2,63.547Zm18.772-65.566-23.9,13.5-.206,46.473,23.9-13.5Z" fill="#fff"/>
        </g>
      </g>
      <path id="Path_66" data-name="Path 66" d="M740.469-623.485l-40.715,23.252-8.67-5.028L731.775-628.5l-12.237-7.057-40.656,23.219-8.67-5.028,40.632-23.2-12.237-7.056L644.527-616.74l12.237,7.056,11.534,6.651,6.4-1.911,6.536-1.95-1.675,4.778-1.627,4.64,20.691,11.931,54.08-30.884Z" fill="#ef8337"/>
    </g>
  </g>
</svg>
